<svg xmlns="http://www.w3.org/2000/svg" viewBox="0 0 135 135"><defs><style>.cls-1{fill:#68b82b;}.cls-2{fill:#fff;}</style></defs><g id="Layer_2" data-name="Layer 2"><g id="Graphic_Elements" data-name="Graphic Elements"><circle class="cls-1" cx="67.5" cy="67.5" r="67.5"/><g id="FULL_COLOR_ICON" data-name="FULL COLOR ICON"><g id="TYPE_A" data-name="TYPE A"><path class="cls-2" d="M113.28,64c0-20.58-20.63-37.33-46-37.33s-46,16.75-46,37.33c0,18.45,16.37,33.91,38.47,36.83,1.5.32,3.54,1,4,2.27a9.28,9.28,0,0,1,.15,4.16s-.54,3.24-.65,3.93c-.2,1.17-.93,4.55,4,2.48S93.77,98.09,103.42,87h0c6.67-7.31,9.86-14.73,9.86-23"/><path class="cls-1" d="M57.93,54.06H54.71a.9.9,0,0,0-.9.9V75a.89.89,0,0,0,.9.89h3.22a.89.89,0,0,0,.9-.89V55a.9.9,0,0,0-.9-.9"/><path class="cls-1" d="M80.14,54.06H76.92a.9.9,0,0,0-.9.9v11.9l-9.18-12.4-.07-.09h0l-.05,0,0,0,0,0h0l-.05,0h0l0,0h0l0,0H62.86A.89.89,0,0,0,62,55V75a.89.89,0,0,0,.89.89h3.23A.9.9,0,0,0,67,75V63.1l9.19,12.42a1,1,0,0,0,.23.22h0l0,0h0l0,0,0,0h0l.06,0h0a.85.85,0,0,0,.23,0h3.22A.89.89,0,0,0,81,75V55a.9.9,0,0,0-.9-.9"/><path class="cls-1" d="M50.16,70.88H41.39V55a.9.9,0,0,0-.9-.9H37.27a.9.9,0,0,0-.9.9V75h0a.91.91,0,0,0,.25.62h0l0,0a.9.9,0,0,0,.62.24H50.16a.89.89,0,0,0,.89-.89V71.77a.89.89,0,0,0-.89-.89"/><path class="cls-1" d="M98,59.08a.89.89,0,0,0,.9-.89V55a.9.9,0,0,0-.9-.9H85.07a.88.88,0,0,0-.62.26h0l0,0a.9.9,0,0,0-.24.62h0V75h0a.87.87,0,0,0,.25.62h0a.87.87,0,0,0,.62.25H98a.89.89,0,0,0,.9-.89V71.77a.89.89,0,0,0-.9-.89H89.19V67.49H98a.9.9,0,0,0,.9-.9V63.37a.9.9,0,0,0-.9-.9H89.19V59.08Z"/></g></g></g></g></svg>