<svg xmlns="http://www.w3.org/2000/svg" viewBox="0 0 494.62 494.62"><defs><style>.cls-1{fill:#38929a;}.cls-2{fill:#fff;}</style></defs><g id="Layer_2" data-name="Layer 2"><g id="Layer_1-2" data-name="Layer 1"><circle class="cls-1" cx="247.31" cy="247.31" r="247.31"/><path class="cls-2" d="M192.06,98.25c8.27,3.14,11.57,10.09,13.37,18,3.58,15.65,7,31.34,10.33,47a37,37,0,0,1,.68,7.29c.12,7.52-3.4,12.61-10.5,15.16-4.95,1.78-9.94,3.48-15,5-4.88,1.47-7.59,4.84-8.74,9.55A32.8,32.8,0,0,0,183,219c12.08,35.38,33,64.7,61.19,88.91a132,132,0,0,0,18.74,12.95c4.14,2.46,9.12,3,14,2.48a11.06,11.06,0,0,0,8.41-4.9c2.77-4.05,5.64-8,8.43-12.05,5.65-8.17,12.23-10.3,21.46-6.37,5,2.13,9.71,4.9,14.49,7.5q13.5,7.35,26.93,14.85c2.29,1.27,4.54,2.65,6.73,4.1,6,4,10.85,8.84,11.48,16.57q-.44,3-.86,5.94c-2,4.53-3.62,9.25-6,13.56-10.59,19.12-26.59,30.77-48.38,33.89-4.35.63-8.82.44-13.23.63l-10.26-1.48c-4.06-1.27-8.18-2.37-12.18-3.82-20.07-7.24-37-19.44-52.81-33.44-18.91-16.78-35.3-35.85-50.51-56C162,277.71,145.15,252,132.94,223.48,126.15,207.64,121,191.31,119.71,174c-.37-5-.26-10.12-.38-15.18q.75-5.13,1.49-10.26a23.74,23.74,0,0,0,.85-2.26c6.74-25,23.18-40.19,47.86-46.67,5.36-1.41,11.05-1.53,16.59-2.24Z"/></g></g></svg>